# xmcd
# Track frame offsets:
# 150
# 14170
# 27008
# 40085
# 49856
# 64569
# 76825
# 87743
# 98946
# 111252
# 119277
# 131513
# 140426
# 152865
# 164257
# 177035
# 189038
#
# Disc length: 2669 seconds
# Revision: 0
# Processed by: cddbd v1.5PL3 Copyright (c) Steve Scherf et al.
# Submitted via: VisiTrax 2.9.9.202 - For more info visit www.synapsa.com
#
DISCID=da0a6b11
DTITLE=Kitty Wells - It Wasn`t God Who Made Honky Tonk Angels
DYEAR=1994
DGENRE=
TTITLE0=I Don`t Claim To Be An Angel
TTITLE1=Release Me
TTITLE2=Making Believe
TTITLE3=Whose Shoulder Will You Cry On
TTITLE4=One By One
TTITLE5=Lonely Side Of Town
TTITLE6=Searching
TTITLE7=Mommy For A Day
TTITLE8=Left To Right
TTITLE9=After Dark
TTITLE10=Password
TTITLE11=I´ll Repossess My Heart
TTITLE12=As Long As I Love
TTITLE13=It`s Was`nt God That Made Honky Tonk Angels
TTITLE14=This White Circle On My Finger
TTITLE15=I´ve Kissed You My Last Time
TTITLE16=There´s A Poison In My Heart
EXTD=
EXTT0=
EXTT1=
EXTT2=
EXTT3=
EXTT4=
EXTT5=
EXTT6=
EXTT7=
EXTT8=
EXTT9=
EXTT10=
EXTT11=
EXTT12=
EXTT13=
EXTT14=
EXTT15=
EXTT16=
PLAYORDER=
